<svg viewBox="0 0 24 24" xmlns="http://www.w3.org/2000/svg" fill-rule="evenodd" clip-rule="evenodd"
    stroke-linejoin="round" stroke-miterlimit="2">
    <circle cx="12" cy="12" r="12" />
    <path
        d="M12 0c6.623 0 12 5.377 12 12s-5.377 12-12 12S0 18.623 0 12 5.377 0 12 0zm0 2c5.519 0 10 4.481 10 10s-4.481 10-10 10S2 17.519 2 12 6.481 2 12 2z"
        fill="#fff" />
    <path d="M1.502 13H4L6.5 10.5 7.503 13H9l.502 2.5 1.997-12 1.505 14L14.5 13h1.998l2.499-2 1.505 2h1.997" />
    <path
        d="M9.07 12.003A.829.829 0 009 12h-.82l-.747-1.871a1.026 1.026 0 00-.73-.609.994.994 0 00-.907.273L3.587 12H1.502c-.555 0-1.004.448-1.004 1s.45 1 1.004 1H4c.264 0 .519-.105.704-.293l1.425-1.428.44 1.092c.15.38.52.629.933.629h.678l.334 1.696c.097.473.52.812 1.003.804a.996.996 0 00.968-.836l.801-4.788.722 6.731a.988.988 0 00.88.887.989.989 0 001.056-.678L15.22 14h1.276a.993.993 0 00.625-.219l1.698-1.356.88 1.175c.185.252.484.4.8.4h1.998c.555 0 1.004-.448 1.004-1s-.45-1-1.004-1h-1.496l-1.205-1.6a.988.988 0 00-.669-.392 1.01 1.01 0 00-.757.211L16.154 12h-1.655c-.431 0-.81.275-.95.684l-.044.14-1.012-9.431a1 1 0 00-1.98-.057L9.07 12.003z"
        fill="#fff" />
</svg>